<svg width="47" height="32" viewBox="0 0 47 32" fill="none" xmlns="http://www.w3.org/2000/svg">
<path d="M45.8329 14.7786L38.4149 7.36022L31.5602 0.505912C30.8856 -0.168637 29.7929 -0.168637 29.1184 0.505912L13.625 15.9993L18.4035 20.7783L23.1817 16.0001L23.1813 15.9993L30.3391 8.84148L33.7127 12.2146L37.4973 15.9993L30.3391 23.1575L27.9561 20.7741L23.1779 25.5526L29.1184 31.4931C29.7929 32.1672 30.8856 32.1672 31.5602 31.4931L38.2561 24.7968L45.8329 17.22C46.507 16.5459 46.507 15.4527 45.8329 14.7786Z" fill="#3844FF"/>
<path d="M27.9613 11.2237L27.9683 11.2276L27.9722 11.2237L32.7443 15.9985L20.8216 27.9219L20.8209 27.918L17.2462 31.4924C16.5723 32.17 15.4791 32.17 14.8049 31.4924L0.531687 17.2222C0.393439 17.0828 0.285009 16.9279 0.202912 16.7575C-0.145612 16.1069 -0.045315 15.2743 0.504967 14.7244L3.99099 11.3206L14.8049 0.508534C15.4791 -0.16528 16.5723 -0.16528 17.2462 0.508534L23.1819 6.44122L18.404 11.2199L16.0255 8.84215L8.89783 15.9714L16.0422 23.1433L19.4484 19.7355L27.9613 11.2237Z" fill="#38C9FF"/>
</svg>
